<?xml version="1.0" standalone="no"?>
<svg
  width="500"
  height="500"
  viewBox="0 0 600 600"
  xmlns="http://www.w3.org/2000/svg"
>
  <g transform="translate(300,300)">
    <path d="M85.5,-146.7C109,-117.9,125,-91.2,135.9,-63.2C146.8,-35.3,152.6,-6.3,155.5,27.4C158.5,61,158.6,99.3,144.4,137.1C130.2,174.8,101.7,212.2,62.4,233.2C23,254.3,-27.2,259.1,-60.1,235.4C-93,211.7,-108.5,159.6,-140.1,122C-171.7,84.4,-219.5,61.4,-236.6,26.3C-253.7,-8.9,-240.1,-56.2,-217.6,-96.9C-195.2,-137.7,-163.8,-171.9,-126.1,-194.1C-88.3,-216.4,-44.2,-226.7,-6.6,-216.5C31,-206.2,62,-175.5,85.5,-146.7Z" fill="#ff6900" />
  </g>
</svg>
